<svg width="24" height="24" viewBox="0 0 24 24" fill="none" xmlns="http://www.w3.org/2000/svg">
<path fill-rule="evenodd" clip-rule="evenodd" d="M15.7832 14.608C16.0491 14.608 16.3041 14.714 16.4917 14.9024L20.6753 19.1032C21.1082 19.5359 21.1082 20.2429 20.6753 20.6755C20.2424 21.1082 19.535 21.1082 19.1021 20.6755L14.9079 16.4838C14.7203 16.2962 14.6148 16.0418 14.6148 15.7765V15.4804C14.6148 15.4014 14.5842 15.3255 14.5293 15.2686C14.4173 15.1525 14.2345 15.1443 14.1077 15.2442C12.6528 16.39 10.7295 16.9646 8.69161 16.6235C5.75639 16.1275 3.41244 13.6794 3.05345 10.7248C2.50442 6.26128 6.26319 2.50471 10.7294 3.05342C13.6857 3.41219 16.1352 5.75477 16.6315 8.68827C16.9728 10.7249 16.3979 12.647 15.2515 14.101C15.1516 14.2278 15.1597 14.4107 15.2759 14.5227C15.3327 14.5774 15.4086 14.608 15.4874 14.608H15.7832ZM5.11234 9.85954C5.11234 12.487 7.23456 14.608 9.86359 14.608C12.4926 14.608 14.6148 12.487 14.6148 9.85954C14.6148 7.23206 12.4926 5.11108 9.86359 5.11108C7.23456 5.11108 5.11234 7.23206 5.11234 9.85954Z" fill="#09101D"/>
</svg>
